<svg width="30" height="30" xmlns="http://www.w3.org/2000/svg" xmlns:xlink="http://www.w3.org/1999/xlink" overflow="hidden"><defs><clipPath id="clip0"><rect x="151" y="488" width="30" height="30"/></clipPath></defs><g clip-path="url(#clip0)" transform="translate(-151 -488)"><path d="M166.002 494.328 166.002 494.328 177.708 505.448 179.127 504.235 166.002 491.75 166.002 491.75 152.877 504.235 154.296 505.448 166.002 494.328Z"/><path d="M156.627 504.958 156.627 514.25 164.127 514.25 164.127 506.438 167.877 506.438 167.877 514.25 175.377 514.25 175.377 504.957 166.002 496.052 156.627 504.958Z"/><path d="M171.628 493.97 171.629 495.194C172.287 495.199 172.916 495.467 173.377 495.937 173.843 496.401 174.109 497.029 174.121 497.686L175.344 497.686C175.335 495.638 173.677 493.979 171.628 493.97Z"/><path d="M177.792 497.687C177.815 494.305 175.092 491.545 171.711 491.522 171.683 491.522 171.655 491.522 171.628 491.522L171.628 492.746C174.349 492.739 176.561 494.94 176.568 497.661 176.568 497.67 176.568 497.678 176.568 497.686Z"/><path d="M171.627 489.031 171.627 490.255C175.724 490.274 179.041 493.59 179.059 497.687L180.283 497.688C180.281 492.908 176.407 489.034 171.627 489.031Z"/></g></svg>