<svg width="20" height="20" xmlns="http://www.w3.org/2000/svg" xmlns:xlink="http://www.w3.org/1999/xlink" overflow="hidden"><defs><clipPath id="clip0"><rect x="0" y="0" width="20" height="20"/></clipPath></defs><g clip-path="url(#clip0)"><path d="M6.86 3.327C7.2116 3.6784 7.5644 4.0288 7.9144 4.3818 8.5316 5.0044 8.5328 5.7306 7.918 6.3484 7.477 6.7916 7.0386 7.2374 6.589 7.6716 6.4702 7.7862 6.4608 7.8806 6.521 8.025 6.8162 8.734 7.243 9.3618 7.7232 9.9522 8.6884 11.1388 9.78 12.192 11.0818 13.0092 11.3606 13.1842 11.669 13.3116 11.9594 13.4692 12.1088 13.5502 12.2112 13.5244 12.3308 13.4008 12.7706 12.9462 13.221 12.5016 13.6704 12.0562 14.259 11.473 14.9978 11.4718 15.589 12.0574 16.3114 12.773 17.0306 13.492 17.7468 14.2136 18.3476 14.8188 18.3428 15.5584 17.7386 16.168 17.3304 16.58 16.899 16.971 16.513 17.4026 15.9512 18.0308 15.2464 18.2342 14.4402 18.1898 13.2684 18.1254 12.1874 17.7366 11.1464 17.2306 8.8324 16.106 6.8542 14.5474 5.1994 12.5776 3.9758 11.1212 2.9646 9.5362 2.2996 7.746 1.978 6.8802 1.748 5.9934 1.818 5.0554 1.8612 4.4766 2.0786 3.9842 2.5052 3.5782 2.9632 3.142 3.3996 2.6832 3.8508 2.2396 4.4416 1.6586 5.1806 1.6598 5.7728 2.2412 6.1384 2.6 6.4978 2.9648 6.86 3.327Z"/></g></svg>